<svg height="512pt" viewBox="-23 0 511 512" width="512pt" xmlns="http://www.w3.org/2000/svg"><path d="m48.339844 0h208.152344v512h-208.152344zm0 0" fill="#ff7037"/><path d="m256.492188 0h208.15625v512h-208.15625zm0 0" fill="#fc0023"/><g fill="#0051bf"><path d="m.5 48.785156h95.679688v30h-95.679688zm0 0"/><path d="m.5 144.894531h95.679688v30h-95.679688zm0 0"/><path d="m.5 241h95.679688v30h-95.679688zm0 0"/><path d="m.5 337.105469h95.679688v30h-95.679688zm0 0"/><path d="m.5 433.214844h95.679688v30h-95.679688zm0 0"/></g><path d="m319.03125 195.46875v-99.789062h-62.539062l-20.015626 165.320312 20.015626 155.320312h62.539062v-99.789062h-32.511719v-121.0625zm0 0" fill="#b4d2d7"/><path d="m252.085938 95.679688c-26.921876 0-48.746094 21.824218-48.746094 48.742187v223.15625c0 26.921875 21.824218 48.746094 48.746094 48.746094h4.40625v-320.644531zm0 0" fill="#e1ebf0"/></svg>